<?xml version="1.0" encoding="UTF-8"?><svg id="_レイヤー_2" xmlns="http://www.w3.org/2000/svg" viewBox="0 0 518.41 122.54" width="256.709"><defs><style>.cls-1{fill:#fff;}.cls-2{fill:#e60012;}.cls-3{fill:#160a0a;}</style></defs><g id="logo4C"><g><g><path class="cls-1" d="M352.01,81.26h-1.59c-.69-3.02-3.37-5.17-6.5-5.17h-5.99c-2.21,0-4.25,1.09-5.49,2.88-1.26-1.65-3.19-2.61-5.29-2.61h-6.14c-1.69,0-3.27,.62-4.49,1.75-.96-.52-2.04-.8-3.13-.8h-22.62c-.44,0-.88,.04-1.32,.13l-4.55-1.25c-.58-.16-1.18-.24-1.77-.24-2.18,0-4.19,1.04-5.43,2.79-.53-.14-1.08-.2-1.64-.2h-8.96c-1.27-1.62-3.22-2.59-5.27-2.59h-5.99c-2.05,0-4.01,.96-5.27,2.59h-8.96c-.54,0-1.08,.07-1.61,.21-.54-.14-1.08-.21-1.61-.21h-3.22c-1.27-1.56-3.14-2.45-5.17-2.45h-5.39c-2.03,0-3.9,.89-5.17,2.45h-3.22c-.12,0-.25,0-.37,0l-4.37-1.72c-2.51-.99-5.53-.29-7.36,1.69-1.24-1.2-2.9-1.89-4.63-1.89h-5.09c-1.38,0-2.7,.42-3.83,1.23h-.74c-1.13-.8-2.45-1.23-3.83-1.23h-5.09c-.43,0-.86,.04-1.27,.13-.42-.09-.85-.13-1.27-.13h-12.14c-3.68,0-6.68,2.99-6.68,6.67v.67c-1.06,1.21-1.65,2.75-1.65,4.37v4.22c0,1.25,.36,2.48,1.05,3.54v6.13c0,.47,.05,.95,.15,1.41v11.53c0,3.68,2.99,6.67,6.67,6.67h4.79c.58,0,1.16-.08,1.72-.23,.56,.15,1.14,.23,1.72,.23h4.79c.32,0,.64-.02,.96-.07,1,.4,2.07,.55,3.14,.45,2.03-.2,3.86-1.33,5-3.1h1.56c1.25,1.39,3.04,2.18,4.92,2.18h5.09c1.12,0,2.23-.29,3.22-.84h.04c1.25,1.32,2.98,2.07,4.79,2.07h4.65c1.45,0,2.88-.48,4.04-1.37,1.07,.05,2.16-.17,3.13-.62,.24-.11,.48-.23,.72-.34,1.23,1.14,2.87,1.79,4.54,1.79h5.39c1.67,0,3.3-.64,4.53-1.78,1.54,.67,3.32,.73,4.9,.17,.13-.04,.25-.09,.38-.15,1.49,.74,3.19,.86,4.74,.4,1.2-.35,2.38-.71,3.52-1.07,1.26,1.38,3.03,2.16,4.93,2.16,2.11,0,4.03-.05,5.76-.13,3.84,0,6.95-1.18,9.22-3.49,.63,.46,1.28,.9,1.94,1.3,1.7,1.03,3.79,1.27,5.71,.56,.36,.14,.72,.24,1.08,.3l1.3,.24c1.24,1.15,2.84,1.78,4.54,1.78h3.89c.97,0,1.9-.2,2.77-.6,.51,.12,1.04,.19,1.57,.19h4.65c1.66,0,3.28-.63,4.5-1.75,1.22,1.04,2.74,1.61,4.34,1.61,1.94,0,3.64-.05,5.04-.14,1.92-.03,3.65-.42,5.15-1.16,.98,.33,2.02,.42,3.04,.27,1.82-.26,4.4-.62,7.87-1.08,.66-.08,1.29-.15,1.89-.22,1.27,1.54,3.18,2.46,5.17,2.46h5.69c1.29,0,2.53-.36,3.6-1.05,1.07,.69,2.31,1.05,3.6,1.05h5.69c3.68,0,6.67-2.99,6.67-6.67v-17.84c0-.28-.02-.55-.05-.83,.72-1.09,1.1-2.36,1.1-3.67v-4.9c0-3.68-2.99-6.68-6.67-6.68Z"/><polygon class="cls-1" points="518.41 22.46 511.4 22.46 511.4 1.05 458.94 1.05 458.94 6.29 448.8 6.29 448.8 .97 349.06 .97 349.06 6.41 336.78 6.41 336.78 1.05 278.11 1.05 278.11 10.65 259.41 10.65 259.41 3.89 252.95 3.89 254.9 1.05 205.59 1.05 205.59 5.05 196.31 5.05 196.31 1.05 105.1 1.05 105.1 2.91 41.97 2.91 41.97 0 18.46 0 18.46 2.91 0 2.91 0 40.48 3.3 40.07 3.3 43.32 0 43.32 0 65.21 15 65.21 30.21 62.85 45.08 65.18 60.41 65.21 60.41 52.07 72.23 52.07 80.56 64.16 100.32 64.16 102.76 60.6 102.76 64.16 123.57 64.16 148.94 53.24 151.16 53.24 143.64 64.16 236.56 64.16 239.59 59.76 242.62 64.16 307.82 64.15 312.69 57.12 312.69 64.16 336.78 64.16 336.78 60.71 349.06 60.71 349.06 64.16 511.41 64.16 511.41 35.76 509.24 35.76 518.41 22.46"/></g><g><g><path class="cls-3" d="M356.6,87.94c0-2.53-2.06-4.59-4.59-4.59h-3.5v-.58c0-2.53-2.06-4.59-4.59-4.59h-5.99c-2.53,0-4.59,2.06-4.59,4.59v1.13h-1.6v-.85c0-2.53-2.06-4.59-4.59-4.59h-6.14c-1.82,0-3.38,1.07-4.13,2.61-.84-1-2.09-1.66-3.5-1.66h-22.62c-.46,0-.92,.07-1.35,.2-.04-.01-.08-.02-.12-.04l-4.95-1.36c-.4-.11-.81-.17-1.22-.17-2.02,0-3.78,1.29-4.38,3.22-.02,.06-.05,.14-.07,.2-.74-.52-1.64-.83-2.62-.83h-10.1c-.75-1.53-2.32-2.59-4.13-2.59h-5.99c-1.81,0-3.39,1.06-4.13,2.59h-10.1c-.57,0-1.11,.12-1.61,.31-.5-.19-1.04-.31-1.61-.31h-4.33c-.77-1.46-2.3-2.45-4.06-2.45h-5.39c-1.76,0-3.29,.99-4.06,2.45h-4.33c-.23,0-.46,.02-.69,.05-.1-.05-.21-.1-.32-.14l-4.49-1.77c-.54-.21-1.11-.32-1.68-.32-1.78,0-3.41,1.04-4.17,2.65-.28,.59-.56,1.13-.84,1.7-.26-2.29-2.18-4.09-4.54-4.09h-5.09c-1.16,0-2.26,.45-3.09,1.23h-2.21c-.83-.78-1.93-1.23-3.09-1.23h-5.09c-.43,0-.86,.07-1.27,.2-.42-.13-.84-.2-1.27-.2h-12.14c-2.53,0-4.59,2.06-4.59,4.59v1.54c-1.03,.85-1.65,2.11-1.65,3.5v4.22c0,1.05,.38,2.06,1.05,2.87v6.8c0,.39,.05,.78,.15,1.16v11.78c0,2.53,2.06,4.59,4.59,4.59h4.79c.6,0,1.18-.12,1.72-.34,.54,.22,1.13,.34,1.72,.34h4.79c.42,0,.83-.06,1.22-.17,.67,.37,1.44,.57,2.22,.57,.15,0,.3,0,.45-.02,1.46-.14,2.77-.98,3.51-2.24,.18-.31,.36-.63,.54-.96,.29,.06,.59,.09,.89,.09h2.85c.81,1.31,2.25,2.18,3.89,2.18h5.09c1.03,0,1.98-.36,2.75-.94l1.6,.23c.84,1.18,2.2,1.93,3.7,1.93h4.64c1.33,0,2.52-.57,3.36-1.47,.32,.07,.65,.11,.98,.11,.67,0,1.34-.15,1.95-.43,.76-.36,1.48-.71,2.16-1.07,.79,1.38,2.28,2.31,3.99,2.31h5.39c1.7,0,3.19-.93,3.99-2.31,.36,.2,.74,.39,1.12,.59,.64,.33,1.36,.5,2.08,.5,.53,0,1.05-.09,1.54-.27,.41-.14,.77-.36,1.12-.61,.79,.62,1.76,1.02,2.81,1.02,.44,0,.88-.06,1.3-.19,1.7-.5,3.35-1.01,4.93-1.52,.76,1.53,2.33,2.53,4.1,2.53,2.08,0,3.98-.05,5.65-.14h.13c3.27,0,5.87-.97,7.74-2.89,.43-.44,.81-.92,1.15-1.45,1.03,.9,2.14,1.72,3.34,2.44,.72,.43,1.54,.66,2.38,.66s1.58-.23,2.26-.62c.45,.25,.93,.45,1.44,.55l1.96,.36c.86,1.02,2.13,1.63,3.51,1.63h3.9c.94,0,1.82-.28,2.56-.77,.56,.23,1.16,.36,1.79,.36h4.64c2.12,0,3.92-1.45,4.44-3.41,.58,1.92,2.36,3.28,4.4,3.28,1.91,0,3.58-.05,4.96-.14,2-.03,3.71-.5,5.1-1.39,.66,.36,1.41,.57,2.21,.57,.22,0,.44-.02,.66-.05,1.89-.27,4.52-.63,7.89-1.08,1.17-.13,2.23-.26,3.19-.39,.74,1.54,2.32,2.6,4.14,2.6h5.69c1.45,0,2.75-.67,3.6-1.73,.84,1.06,2.14,1.73,3.6,1.73h5.69c2.53,0,4.59-2.06,4.59-4.59v-17.84c0-.47-.07-.92-.2-1.35,.77-.82,1.25-1.93,1.25-3.14v-4.9Z"/><path class="cls-1" d="M352.01,85.64h-5.79v-2.88c0-1.27-1.03-2.3-2.3-2.3h-5.99c-1.27,0-2.3,1.03-2.3,2.3v3.42h-6.19v-3.15c0-1.27-1.03-2.3-2.3-2.3h-6.14c-1.27,0-2.3,1.03-2.3,2.3v3.15h-2.8c-.08,0-.16,.04-.24,.05v-2.25c0-1.27-1.03-2.3-2.3-2.3h-22.62c-.5,0-.97,.16-1.35,.44-.22-.16-.47-.28-.74-.35l-4.94-1.36c-.2-.06-.41-.08-.61-.08-.98,0-1.88,.63-2.19,1.61-.28,.9-.75,2.07-1.39,3.47-.45,.09-.86,.32-1.19,.66v-.85c0-1.27-1.03-2.3-2.3-2.3h-11.94v-.29c0-1.27-1.03-2.3-2.3-2.3h-5.99c-1.27,0-2.3,1.03-2.3,2.3v.29h-11.94c-.63,0-1.2,.26-1.61,.67-.42-.41-.98-.67-1.61-.67h-6.09v-.15c0-1.27-1.03-2.3-2.3-2.3h-5.39c-1.27,0-2.3,1.03-2.3,2.3v.15h-6.09c-.39,0-.75,.1-1.07,.27-.22-.22-.49-.4-.78-.51l-4.49-1.77c-.28-.11-.56-.16-.84-.16-.87,0-1.7,.5-2.08,1.33-.75,1.61-1.51,3.13-2.26,4.53h0c-.63,0-1.25,.26-1.7,.75l-1.2,1.32v-5.36c0-1.27-1.03-2.3-2.3-2.3h-5.09c-.88,0-1.61,.51-2,1.23h-4.39c-.39-.72-1.12-1.23-2-1.23h-5.09c-.48,0-.9,.18-1.27,.44-.37-.25-.79-.44-1.27-.44h-12.14c-1.27,0-2.3,1.03-2.3,2.3v2.87c-.95,.28-1.65,1.13-1.65,2.17v4.22c0,.8,.43,1.47,1.05,1.88v7.79c0,.32,.07,.63,.19,.9,0,.06-.04,.12-.04,.19v11.85c0,1.27,1.03,2.3,2.3,2.3h4.79c.69,0,1.3-.3,1.72-.78,.42,.48,1.04,.78,1.72,.78h4.79c.59,0,1.12-.22,1.53-.58,.07,.07,.14,.15,.2,.23,.44,.49,1.06,.77,1.71,.77,.08,0,.15,0,.23-.01,.73-.07,1.38-.49,1.75-1.12,.6-1.02,1.1-2.02,1.55-3.02,.41,.6,1.07,1.02,1.86,1.02h4.47c.06,1.21,1.05,2.18,2.27,2.18h5.09c.87,0,1.6-.5,1.99-1.21,.2,.1,.41,.2,.63,.23l3.24,.47c.26,.99,1.11,1.73,2.18,1.73h4.64c1.27,0,2.3-1.03,2.3-2.3v-.32c.26,.51,.7,.9,1.23,1.11,.26,.1,.54,.15,.82,.15,.33,0,.67-.07,.97-.22,1.84-.86,3.44-1.73,4.82-2.61v1.35c0,1.27,1.03,2.3,2.3,2.3h5.39c1.27,0,2.3-1.03,2.3-2.3v-1.36c1.12,.71,2.4,1.44,3.85,2.18,.33,.17,.68,.25,1.04,.25,.26,0,.52-.04,.77-.13,.59-.21,1.08-.66,1.33-1.24,.18-.4,.39-.82,.59-1.24,.23,.46,.47,.91,.69,1.4,.38,.84,1.21,1.35,2.09,1.35,.22,0,.43-.03,.65-.09,2.51-.74,4.9-1.49,7.11-2.24,.12,.47,.24,.93,.35,1.38,.24,1.04,1.17,1.77,2.24,1.77,2.07,0,3.96-.05,5.6-.14h.2c2.6,0,4.65-.74,6.07-2.2,1.01-1.03,1.66-2.38,1.95-4.02,1.5,1.84,3.29,3.4,5.37,4.65,.37,.22,.78,.33,1.19,.33,.71,0,1.41-.33,1.86-.94,.01-.02,.15-.2,.56-.57,.06,.17,.1,.34,.2,.49,.35,.52,.89,.87,1.5,.99l2.94,.54c.35,.83,1.16,1.41,2.12,1.41h3.9c1.09,0,2.01-.76,2.24-1.79,.35,.81,1.16,1.38,2.11,1.38h4.64c1.27,0,2.3-1.03,2.3-2.3v-3.81c.8,.46,1.75,.74,2.85,.79h.53c.37,1.02,.68,2.12,.91,3.32,.21,1.08,1.16,1.86,2.26,1.86,1.89,0,3.53-.05,4.88-.14,2.12-.02,3.78-.63,4.93-1.82,.14-.14,.24-.31,.36-.47,.34,.87,1.16,1.47,2.1,1.47,.11,0,.22,0,.33-.02,1.89-.27,4.53-.63,7.92-1.09,2.19-.25,3.94-.47,5.34-.68v.58c0,1.27,1.03,2.3,2.3,2.3h5.69c1.23,0,2.23-.97,2.29-2.18h2.6c.06,1.21,1.06,2.18,2.29,2.18h5.69c1.27,0,2.3-1.03,2.3-2.3v-17.84c0-1.04-.68-1.91-1.63-2.2h.38c1.27,0,2.3-1.03,2.3-2.3v-4.9c0-1.27-1.03-2.3-2.3-2.3Z"/><g><rect class="cls-3" x="166.17" y="83.31" width="12.14" height="3.68"/><rect class="cls-3" x="164.52" y="88.35" width="15.43" height="4.22"/><rect class="cls-3" x="165.57" y="93.66" width="13.34" height="3.68"/><path class="cls-3" d="M180.85,98.02c.1,6.26-.6,10.53-2.1,12.8v-7.49h-13.04v11.85h4.79v-1.36h3.45v1.36h4.79v-2.86c1,.73,2.15,1.81,3.45,3.27,1.5-2.54,2.5-4.99,3-7.36,.5-2.27,.75-5.67,.75-10.22v-14.71h-5.09v14.71Zm-6.89,11.99h-3.45v-2.59h3.45v2.59Z"/><rect class="cls-3" x="187.59" y="84.54" width="5.09" height="27.92"/><rect class="cls-3" x="194.33" y="83.31" width="5.09" height="31.33"/><rect class="cls-3" x="165.57" y="98.43" width="13.34" height="3.81"/><path class="cls-3" d="M237.74,105.24v-14.17h-7.79v-1.77h8.39v-4.09h-8.39v-2.45h-5.39v2.45h-8.39v4.09l-3.45-1.5-2.7,4.36c-.3-.27-.55-.45-.75-.54-.1,0-.2-.05-.3-.14,.7-.91,1.75-2.45,3.15-4.63,.6-.91,1.05-1.59,1.35-2.04l-4.49-1.77c-1.1,2.36-2.2,4.49-3.3,6.4l-1.05-.55-2.85,3.13c.7,.46,1.9,1.23,3.6,2.32,1.1,.64,1.9,1.14,2.4,1.5-.7,1.27-1.75,2.81-3.15,4.63l-1.95,.14,1.5,3.95c.9-.27,1.95-.45,3.15-.54h.15v2.01l-3.08-.24c-.1,.54-.2,1.32-.3,2.32-.4,2.45-.75,4.31-1.05,5.58l3.75,.55c.1-.55,.2-1.45,.3-2.72,.15-.88,.28-1.67,.39-2.41v6.77h4.64v-12.26h.75l.45,1.5,3.45-.82v.96h5.99c-1.7,1.63-3.75,3-6.14,4.09l-1.35-4.09-2.85,.55c.2,.73,.5,1.82,.9,3.27,.3,1.09,.55,1.91,.75,2.45l1.05-.14,1.35,3.13c3.69-1.73,6.39-3.49,8.09-5.31v6.13h5.39v-6.13c1.4,1.55,3.79,3.18,7.19,4.9,.6-1.36,1.35-2.81,2.25-4.36-3-.91-5.54-2.41-7.64-4.49h5.99Zm-8.24-10.35h3.75v1.64l-2.25-.95c-.3,.36-.65,.87-1.05,1.5-.2,.36-.35,.64-.45,.82v-3Zm-19.63,5.31l1.35-1.91,.6,1.77-1.95,.14Zm6.89,3.13c-.2-.73-.6-1.82-1.2-3.27-.5-1.45-.9-2.54-1.2-3.27l-2.55,.68c2.4-3.63,4.14-6.22,5.24-7.76l-.75-.41h8.24v1.77h-7.79v12.26Zm8.09-1.91h-3.75v-3.41c.2,.27,.5,.73,.9,1.36,.3,.54,.55,1,.75,1.36l2.1-1.09v1.77Zm0-3.27l-1.8-2.59-1.95,.95v-1.64h3.75v3.27Zm4.64,3.27v-1.64l1.8,.96c.7-.91,1.35-1.91,1.95-3v3.68h-3.75Z"/><path class="cls-3" d="M269.88,101.29c1.8-.73,3.1-1.27,3.9-1.64,.6-.27,1.05-.5,1.35-.68l-3-4.09c-3.4,1.64-6.79,3.18-10.19,4.63-.6-.9-1.3-1.77-2.1-2.59,.5-.27,1.25-.63,2.25-1.09,.7-.36,1.25-.64,1.65-.82h5.39v-3.81h-20.53v3.81h6.29c-3.4,1.27-7.94,2.18-13.64,2.72,.1,.18,.3,.55,.6,1.09,.8,1.36,1.35,2.41,1.65,3.13,4.39-.9,8.14-1.95,11.24-3.13l.6,.68c-4,2-8.89,3.45-14.68,4.36,.9,1.55,1.65,3,2.25,4.36,5.89-1.64,10.79-3.45,14.68-5.45l.3,.82c-5.09,3-10.94,5.13-17.53,6.4,.8,1.27,1.55,2.68,2.25,4.22,3.39-1,6.49-2,9.29-3,.4,1.27,.75,2.54,1.05,3.82,2.1,0,3.95-.05,5.54-.14,4.19,.09,6.24-2,6.14-6.27,0-1.72-.2-3.41-.6-5.04l1.05-.41c1.6,4.63,4.35,8.13,8.24,10.49,.2-.27,.55-.64,1.05-1.09,1.2-1.45,2.15-2.5,2.85-3.13-3.8-1.91-6.24-4.63-7.34-8.17Zm-14.08,9.54h-1.2c-.8,.09-1.4,.09-1.8,0,2.1-.82,4.14-1.81,6.14-3v.68c.2,1.64-.85,2.41-3.15,2.32Z"/><polygon class="cls-3" points="247.41 89.71 270.03 89.71 270.03 93.8 276.03 93.8 276.03 85.22 261.79 85.22 261.79 82.63 255.8 82.63 255.8 85.22 241.57 85.22 241.57 93.8 247.41 93.8 247.41 89.71"/><path class="cls-3" d="M278.45,109.6c-.2,1.82-.4,3.18-.6,4.09l3,.55c.3-2.64,.6-5.36,.9-8.17l-2.7-.27c-.1,.81-.3,2.09-.6,3.81Z"/><path class="cls-3" d="M290.74,89.17l-3.3-1.36-1.8,3.27-1.35-.82,3.75-6.26-4.94-1.36c-.4,1.27-1.1,2.95-2.1,5.04-.1,.18-.15,.32-.15,.41-.3-.18-.6-.32-.9-.41l-2.55,2.86c.7,.36,1.75,1,3.15,1.91,1.4,.91,2.4,1.59,3,2.04-1.3,2.18-2.6,4.13-3.9,5.86l-1.35,.14,1.35,3.81c.9-.27,1.8-.41,2.7-.41h.15v11.71h3.9v-11.99c.2-.09,.45-.13,.75-.13,.1,.18,.2,.45,.3,.81,.1,.46,.15,.77,.15,.96l3.15-.82v7.36c-.4-1.72-1-3.86-1.8-6.4l-2.4,.41c.4,1.54,.8,3.31,1.2,5.31,.2,.64,.35,1.13,.45,1.5l2.55-.55v3.13h4.64v-26.83h13.33v20.98c.1,1-.45,1.5-1.65,1.5h-4.05c.5,1.27,.9,2.68,1.2,4.22,1.9,0,3.49-.05,4.79-.14,3,0,4.44-1.45,4.34-4.36v-26.56h-22.62v5.18Zm-6.29,10.9l1.05-1.63,.45,1.5-1.5,.14Zm6.29,3c-.6-1.91-1.25-3.81-1.95-5.72l-3,.68,4.94-7.08v12.12Z"/><path class="cls-3" d="M307.22,106.06h-3.75c-1,.09-1.5-.41-1.5-1.5v-1.63h5.84v-3.95h-3.3v-2.04h-5.09v2.04h-3.3v3.95h1.2v3.54c.1,2.18,1.2,3.32,3.3,3.41h6.59v-3.81Z"/><path class="cls-3" d="M296.13,96.52h11.69v-3.81h-1.35l1.2-3.13-4.2-.54c-.1,.27-.25,.68-.45,1.22-.3,1-.6,1.82-.9,2.45h-.3l-1.35-3.68-4.2,.68,1.2,3h-1.35v3.81Z"/><polygon class="cls-3" points="332.38 88.48 327.14 88.48 327.14 83.04 320.99 83.04 320.99 88.48 315.9 88.48 315.9 93.53 332.38 93.53 332.38 88.48"/><path class="cls-3" d="M352.01,92.84v-4.9h-8.09v-5.17h-5.99v14.57h-5.54v17.84h5.69v-2.18h7.19v2.18h5.69v-17.84h-7.04v-4.49h8.09Zm-6.74,9.54v5.99h-7.19v-5.99h7.19Z"/><path class="cls-3" d="M331.78,95.29l-5.39-1.09c-.3,1.09-.7,2.72-1.2,4.9-.6,2.54-1.1,4.49-1.5,5.86-.2-1.36-.55-3.18-1.05-5.45-.5-2.27-.9-4.04-1.2-5.31l-5.09,.82c.1,.46,.25,1.04,.45,1.77,.9,4.27,1.55,7.58,1.95,9.94l4.79-.95c-.1,.73-.3,1.5-.6,2.32-3.3,.36-5.79,.59-7.49,.68l1.05,5.31c1.9-.27,4.54-.64,7.94-1.09,3.2-.36,5.54-.68,7.04-.95,0-1.72,.05-3.31,.15-4.77-1.2,.09-2.45,.23-3.75,.41,.5-1.64,1.3-4.13,2.4-7.49,.6-2.18,1.1-3.81,1.5-4.9Z"/></g></g><g><path class="cls-3" d="M514.45,24.54h-5.13V3.13h-48.3v5.24h-14.3V3.05h-95.58v5.44h-16.44V3.13h-19.93V21.67h-4.16V3.13h-30.42V12.73h-22.86V5.97h-8.34l1.95-2.84h-22.4l-2.3,3.34V3.13h-18.57V7.13h-13.44V3.13H107.18v1.86H39.89V2.08H20.54v2.91H2.08V38.12l3.3-.41v7.69s-3.3,0-3.3,0v17.73H15l15.2-2.38,15.2,2.38h12.92v-13.14h15l8.33,12.09h17.57l5.62-8.17v8.17h18.3l25.37-10.92h6.6l-7.52,10.93h87.86l4.13-5.99,4.13,5.99h63.01s3.88-5.61,3.88-5.61v-14.19h4.16v19.8h19.93v-5.72l1.57,2.28h14.87v3.44h26.93v-8.39h2.8v8.39h128.46v-24.24h-4.04l9.16-13.3Z"/><polygon class="cls-1" points="510.08 26.83 507.02 26.83 507.02 5.43 463.32 5.43 463.32 10.67 444.43 10.67 444.43 5.35 353.44 5.35 353.44 10.79 332.41 10.79 332.41 5.43 317.06 5.43 317.06 23.97 308.31 23.97 308.31 5.43 282.48 5.43 282.48 15.03 255.03 15.03 255.03 8.26 244.62 8.26 246.57 5.43 229.74 5.43 224.04 13.7 223.95 13.7 223.94 5.43 209.96 5.43 209.96 13.7 205.92 13.7 205.92 9.43 191.93 9.43 191.93 5.43 109.48 5.43 109.48 7.29 37.59 7.29 37.59 4.38 22.83 4.38 22.83 7.29 4.38 7.29 4.38 35.52 7.68 35.11 7.68 47.7 4.38 47.7 4.38 60.83 14.82 60.83 30.21 58.42 45.59 60.83 56.03 60.83 56.03 47.7 74.53 47.7 82.86 59.78 98.02 59.78 102.93 52.64 107.14 52.64 107.14 59.78 122.67 59.78 148.05 48.86 159.48 48.86 151.96 59.79 169.62 59.79 174.16 53.2 174.16 59.78 188.72 59.78 188.72 53.2 193.26 59.79 234.26 59.79 239.59 52.05 244.92 59.79 305.52 59.79 305.52 59.78 308.31 55.75 308.31 39.99 317.06 39.99 317.06 59.78 332.41 59.78 332.41 48.98 337.48 56.34 353.44 56.34 353.44 59.78 375.77 59.78 375.77 51.39 383.16 51.39 383.17 59.78 507.03 59.78 507.03 40.13 500.91 40.13 510.08 26.83"/><g><path class="cls-3" d="M152.76,29.6v-12.57h2.53v-7.45h-12.24v-1.86h-9.78v8.66h-4.41V7.72h-9.78v1.86h-11.66v7.45h2.72v12.57h-2.72v11.14h2.01v6.45h8.62l1.7,2.47-.33,.14h-10v7.69h12.76l27.11-11.67v-5.08h5.98v-11.14h-2.53Zm-35.56,9.15v-1.46h3.39l-3.39,1.46Zm10.55,7.47l-1.24-1.8h5.43l-4.19,1.8Zm17.75-8.92h-4.28s4.28,0,4.28,0h0Z"/><polygon class="cls-3" points="259.9 37.04 266.72 37.04 266.72 45.98 259.9 45.98 259.9 55.56 283.51 55.56 283.51 54.36 283.51 45.98 276.89 45.98 276.89 37.04 283.51 37.04 283.51 27.46 259.9 27.46 259.9 37.04"/><path class="cls-3" d="M504.42,31.01h0l1.29-1.88h-10.41l-.31,.45v-2.94h9.74V7.72h-8.75v9.6h-1V7.72h-9.32v1.75h-10.86v-1.75h-9.2v7.58h-8.94v31.54h0v2.99l-2.73,3.96v-4.73h-5.64v-10.02h5.64v-8.42h-3.2l1.65-2.3v-7h1.26V12.91h-11.52V7.72h-8.03v6.97h-3.28V7.72h-9.39v6.97h-3.63v-5.85h-13.08v8.42h11.85v2.36h-11.85v8.42h11.85v2.36h-11.85v9.39h3.89v10.04s-5.27,7.64-5.27,7.64h58.45l.67-.97v.97h42.27v-15.06h-8.19l7.87-11.42Zm-86.61,7.6v-5.78h1.07v4.81l-1.07,1.55v-.58Zm0,10.46v-3.77h6.03l.31-.45,2.51,3.63h0s.41,.59,.41,.59h-9.25Zm17.29-10.02h4.76v2.27h-4.76v-2.27Zm0,10.02v-7.43l5.32,7.43h-5.32Zm6.5-18.44h-6.5v-1.49h7.57l-1.07,1.49Z"/><polygon class="cls-3" points="205.18 46.57 205.18 45.37 205.18 38.34 203.82 38.34 203.82 38.21 203.82 34.61 203.82 30.96 201.87 30.96 201.87 25.19 201.87 24.74 201.87 18.98 203.62 18.98 203.62 11.72 194.67 11.72 189.64 11.72 189.64 7.72 179.66 7.72 179.66 11.72 172.89 11.72 167.71 11.72 167.71 8.92 167.71 7.72 157.99 7.72 157.99 22.57 154.37 27.83 161.98 27.83 161.98 34.3 161.98 38.34 157.7 38.34 157.7 46.57 163.85 46.57 156.33 57.49 168.42 57.49 175.94 46.57 176.45 46.57 176.45 57.49 186.43 57.49 186.43 56.29 186.43 46.57 186.94 46.57 194.46 57.49 206.55 57.49 199.03 46.57 205.18 46.57"/><polygon class="cls-3" points="43.98 9.59 35.3 9.59 35.3 6.67 25.13 6.67 25.13 9.59 16.45 9.59 15.25 9.59 6.67 9.59 6.67 16.25 6.67 18.59 9 18.59 9 21.5 9.59 21.5 9.59 25.98 7.7 26.21 7.7 32.79 9.97 32.51 9.97 47.49 9.97 49.87 9.97 49.99 6.67 49.99 6.67 58.54 14.65 58.54 28.55 56.36 28.55 49.87 31.86 49.87 31.86 56.36 45.76 58.54 53.74 58.54 53.74 49.99 50.45 49.99 50.45 49.87 50.45 47.19 50.45 31.64 51.62 31.64 51.62 30.44 51.62 26.36 52.59 26.36 52.59 25.16 52.59 20.66 51.43 20.66 51.43 18.59 53.75 18.59 53.75 16.25 53.75 15.06 53.75 9.59 52.56 9.59 43.98 9.59"/><path class="cls-3" d="M403.59,40.28h-8.35v-3.63h6.8V11.14h-12.63v-3.5h-9.39v3.5h-7.13v-3.42h-8.22v1.67h-8.94V57.49h17.75v-8.39h11.98v8.39h9.78v-8.39h8.35v-8.81Zm-30.12-.49v-2.03h0v-1.1h2.16l-2.16,3.13Zm11.98,.49h-2.65s2.5-3.63,2.5-3.63h.15v3.63Z"/><polygon class="cls-3" points="330.11 22.47 348.37 22.47 348.37 13.08 330.11 13.08 330.11 7.72 319.36 7.72 319.36 8.92 319.36 26.26 306.02 26.26 306.02 18.52 306.02 17.32 306.02 8.92 306.02 7.72 295.85 7.72 295.85 17.32 294.95 17.32 294.95 7.72 284.78 7.72 284.78 17.32 258.93 17.32 258.93 18.52 258.93 26.71 284.78 26.71 284.78 57.49 294.95 57.49 294.95 57.48 295.85 57.48 304.29 57.48 304.32 57.48 305.87 55.23 306.02 55.02 306.02 55.02 306.02 54.64 306.02 48.17 306.02 42.28 295.85 42.28 295.85 48.17 294.95 48.17 294.95 26.71 303.62 26.71 303.62 36.04 319.36 36.04 319.36 57.49 330.11 57.49 330.11 41.6 338.68 54.04 351.37 54.04 340.52 38.3 330.11 38.3 330.11 36.04 353.04 36.04 353.04 34.84 353.04 26.26 330.11 26.26 330.11 22.47"/><path class="cls-3" d="M257.2,45.58v-8.22h-1.94V18.52h-3.59l1.06-1.54v-6.43h-12.49l1.95-2.84h-11.25l-5.7,8.28h-3.6V7.72h-9.39V16h-3.89v9.58h3.89v4.79h-5.7v9.59h5.7v7.26h-7.56l7.06,10.26h6.06l3.83-5.56v-6.35h8.36l-8.21,11.92h11.25l6.54-9.49,.59,.85,5.95,8.64h11.25l-8.21-11.92h8.04Zm-33.29-19.22v4.02h-2.27v-4.79h2.27v.78Zm8.61,3.56v-3.56h2.44s-2.44,3.56-2.44,3.56Zm14.12,0l-2.44-3.55h0s2.06,0,2.06,0h.37v3.56Z"/><polygon class="cls-3" points="55.89 19.56 90.08 19.56 90.08 47.22 77 47.22 84.07 57.49 84.7 57.49 96.81 57.49 100.64 51.93 100.64 49.62 100.64 48.42 100.64 47.22 100.64 19.56 105.3 19.56 105.3 18.36 105.3 9.78 55.89 9.78 55.89 19.56"/><path class="cls-3" d="M86.84,21.44h-26.29v23.38h26.29V21.44Zm-16.13,14.38v-5.38s5.76,0,5.76,0v5.38s-5.76,0-5.76,0Z"/></g><g><path class="cls-2" d="M141.85,8.92h-7.38v8.66h-6.8V8.92h-7.38v1.86h-11.66v5.05h11.66v1.75h-8.94v11.85h40.22v-11.85h-9.72v-1.75h12.24v-5.05h-12.24v-1.86Zm-19.04,15.66h-4.08v-2.14h4.08v2.14Zm10.88,0h-4.27v-2.14h4.27v2.14Zm10.69-2.14v2.14h-4.27v-2.14h4.27Z"/><path class="cls-2" d="M108.63,39.54h7.38v-3.45h10.4l-10.68,4.6h-5.09v5.3h7.35l6.44-2.77h13.33l-10.43,4.49-2.46-3.57-5.75,2.48,2.46,3.57-1.9,.82h-9.05v5.3h11.32l26.16-11.26v-5.49h5.98v-8.74h-45.46v8.74Zm32.35-3.45h5.73v2.4h-11.3l5.57-2.4Z"/><polygon class="cls-2" points="261.1 35.85 267.92 35.85 267.92 47.17 261.1 47.17 261.1 54.36 282.31 54.36 282.31 47.17 275.69 47.17 275.69 35.85 282.31 35.85 282.31 28.66 261.1 28.66 261.1 35.85"/><polygon class="cls-2" points="297.05 49.36 293.75 49.36 293.75 25.52 304.82 25.52 304.82 18.52 293.75 18.52 293.75 8.92 285.98 8.92 285.98 18.52 260.13 18.52 260.13 25.52 285.98 25.52 285.98 56.29 303.66 56.29 303.69 56.29 304.82 54.64 304.82 54.64 304.82 43.48 297.05 43.48 297.05 49.36"/><rect class="cls-2" x="297.05" y="8.92" width="7.77" height="8.4"/><rect class="cls-2" x="405.92" y="10.05" width="10.69" height="6.02"/><rect class="cls-2" x="405.92" y="20.83" width="10.69" height="6.02"/><path class="cls-2" d="M451.19,27.94v-5.71h-10.68l.42-.61v-1.49h11.52v-6.02h-11.52v-5.18h-5.63v10.26l-1.41,2.05v-5.33h-4.27v-6.97h-6.99v6.97h-4.86v6.02h2.3v3.69h-2.3v6.02h2.3v6.38l-3.46,5.02v-11.42h0s-10.69,0-10.69,0h0v7h3.89v11.61l-4.18,6.07h47.12v-6.02h-36.14v-6.17h6.6l.94-1.36,4,5.8h5.75V25.61h-7.77v-3.69h7.3l-.66,.96h3.56v5.07h8.67l-2.78,3.88h-7.18v6.02h6.02v4.66h-3.86l4.31,6.02h5.6v-10.69h5.64v-6.02h-4.33l2.78-3.88Zm-23.34,3.69v10.88h-3.55l1.83-2.66v-8.22h0s1.72,0,1.72,0Z"/><path class="cls-2" d="M465.54,46.71h18.22v-9.33h-18.22v9.33Zm5.44-5.44h7.53v1.55h-7.53v-1.55Z"/><rect class="cls-2" x="465.54" y="31.65" width="18.36" height="4.27"/><polygon class="cls-2" points="496.62 43.63 496.62 49.37 493.79 49.37 493.79 44.32 503.43 30.33 495.92 30.33 493.79 33.43 493.79 25.44 503.53 25.44 503.53 18.52 493.79 18.52 493.79 8.92 486.87 8.92 486.87 18.52 485.04 18.52 485.04 25.44 486.87 25.44 486.87 43.48 482.21 50.23 486.87 50.23 486.87 56.29 503.54 56.29 503.54 43.63 496.62 43.63"/><path class="cls-2" d="M482.13,48.16h-5.63v3.86h-3.69v-3.86h-5.63v3.86h-3.08V24.68h2.72v5.52h17.1v-6.12h-5.63v2.16h-4.66v-1.56h3.11v-2.67h-3.11v-1.56h4.66v2.17h5.63v-6.13h-10.3v-1.75h10.49v-4.08h-10.49v-1.75h-6.8v7.58h-8.94V50.21s-4.19,6.08-4.19,6.08h7.49l2.49-3.62v3.62h21.99v-4.27h-3.51v-3.86Zm-18.04-27.7h2.72v1.56h-2.72v-1.56Z"/><rect class="cls-2" x="497.18" y="8.92" width="6.35" height="8.4"/><path class="cls-2" d="M203.98,45.37v-5.83h-18.75v-2.52h17.39v-4.86h-14.18v-1.94h12.24v-4.27h-12.24v-1.94h12.24v-4.27h-12.24v-1.94h13.99v-4.86h-13.98v-4h-7.58v4h-14.35v-4h-7.33v14.02l-2.54,3.7h6.53v11.74h7.38v-1.36h7.09v2.52h-18.75v5.83h7.22l-7.52,10.93h9.18l7.52-10.93h2.34v10.92h7.58v-10.92h2.34l7.52,10.93h9.18l-7.52-10.93h7.22Zm-23.12-13.21h-10.3v-1.94h10.3v1.94Zm0-6.22h-10.3v-1.94h10.3v1.94Zm0-6.22h-10.3v-1.94h10.3v1.94Z"/><polygon class="cls-2" points="7.87 51.19 7.87 57.34 14.55 57.34 27.35 55.33 27.35 49.18 14.55 51.19 7.87 51.19"/><polygon class="cls-2" points="33.06 49.18 33.06 55.33 45.86 57.34 52.54 57.34 52.54 51.19 45.86 51.19 33.06 49.18"/><path class="cls-2" d="M34.1,7.87h-7.77v2.91H7.87v6.61h2.33v2.91h6.02v1.55h-5.44v3.3h5.44v1.54h-2.8l-4.53,.57v4.17l4.53-.57h14.57v-4.17h-4.96v-1.54h3.89v-3.3h-3.89v-1.55h4.47v-3.5H15.25v-1.75H31.62l-4.32,6.02h6.75l.56-.78h2.22v1.55h-8.35v3.3h8.35v2.33h-1.94v-1.2h-5.44v4.15h20.98v-4.15h-5.25v1.2h-1.94v-2.33h8.16v-3.3h-8.16v-1.55h7v-2.91h2.33v-6.61h-18.46v-2.91Zm4.27,7.19h6.81v1.75h-8.06l1.26-1.75Z"/><path class="cls-2" d="M49.25,31.97H11.17v16.71H49.25V31.97Zm-7.58,13.21H18.75v-1.36h22.93v1.36Zm0-4.08H18.75v-1.56h22.93v1.56Zm0-4.27H18.75v-1.36h22.93v1.36Z"/><polygon class="cls-2" points="394.04 37.01 386.66 37.01 386.66 41.48 373.41 41.48 373.41 47.89 386.66 47.89 386.66 56.29 394.04 56.29 394.04 47.89 402.4 47.89 402.4 41.48 394.04 41.48 394.04 37.01"/><path class="cls-2" d="M374.65,40.2h6.76l3.27-4.74h16.16V12.34h-12.63v-3.5h-6.99v3.5h-6.61v23.12h3.31l-3.27,4.74Zm16.28-22.23h3.69v3.5h-3.69v-3.5Zm.05,8.35h3.64v3.5h-6.05l2.41-3.5Zm-10.15-8.35h3.89v3.5h-3.89v-3.5Zm0,8.35h3.39l-2.41,3.5h-.98v-3.5Z"/><polygon class="cls-2" points="371.7 8.92 365.87 8.92 365.87 23.02 363.73 23.02 363.73 10.59 356.93 10.59 356.93 56.29 363.73 56.29 363.73 38.96 366.26 38.96 366.26 56.29 372.28 56.29 372.28 38.96 372.28 38.96 372.28 32.35 363.73 32.35 363.73 29.44 373.25 29.44 373.25 23.02 371.7 23.02 371.7 8.92"/><polygon class="cls-2" points="328.91 21.28 347.18 21.28 347.18 14.28 328.91 14.28 328.91 8.92 320.56 8.92 320.56 27.46 304.82 27.46 304.82 34.84 320.56 34.84 320.56 56.29 328.91 56.29 328.91 34.84 351.84 34.84 351.84 27.46 328.91 27.46 328.91 21.28"/><polygon class="cls-2" points="330.11 39.49 339.31 52.84 349.09 52.84 339.89 39.49 330.11 39.49"/><polygon class="cls-2" points="242.8 35.97 235.76 35.97 235.76 38.55 223.17 38.55 223.17 44.38 232.29 44.38 224.09 56.3 224.09 56.3 232.42 56.3 239.59 45.89 246.76 56.3 246.76 56.3 255.09 56.3 246.89 44.38 256.01 44.38 256.01 38.55 242.8 38.55 242.8 35.97"/><path class="cls-2" d="M225.11,36.85h6.22v-1.93h5.53l2.73-3.96,2.73,3.96h5.53v1.93h6.22V19.72h-4.67l2.14-3.11h0s0,0,0,0h0v-4.86h-13.57l1.95-2.84h-8.34l-8.02,11.64v-3.37h-3.11V8.92h-6.99v8.28h-3.89v7.19h3.89v7.19h-5.7v7.19h5.7v9.66h-6.48l5.41,7.87h4.8l3.26-4.73v-12.79l4.66-6.8v4.89Zm22.73-11.69v8.6l-5.09-7.39h0l.83-1.21h4.26Zm-13.48-8.19h8.58l-1.89,2.75h-8.58l1.89-2.75Zm-3.04,8.19h5.93l-5.93,8.6v-8.6Zm-10.88,6.41v-7.19h3.11v-1.26h1.55v8.45h-4.66Z"/><polygon class="cls-2" points="57.08 18.36 91.28 18.36 91.28 48.42 79.28 48.42 84.7 56.29 96.18 56.29 99.44 51.56 99.44 18.36 104.1 18.36 104.1 10.98 57.08 10.98 57.08 18.36"/><path class="cls-2" d="M85.64,22.64h-23.9v20.98h23.9V22.64Zm-7.97,14.38h-8.16v-7.77h8.16v7.77Z"/></g><g><polygon class="cls-1" points="146.71 38.48 135.42 38.48 131.47 40.18 146.41 40.18 148.41 38.19 148.41 34.39 146.71 36.09 146.71 38.48"/><polygon class="cls-1" points="225.24 21.42 232.67 10.62 237.06 10.62 239.92 8.92 231.58 8.92 221.8 23.12 225.24 21.42"/><polygon class="cls-1" points="127.33 47.7 128.44 49.31 142.62 43.21 137.76 43.21 127.33 47.7"/><polygon class="cls-1" points="124.87 44.13 119.12 46.61 121.58 50.17 119.69 50.99 110.63 50.99 110.63 50.99 110.63 56.29 112.33 54.59 112.33 52.69 120.61 52.69 124.29 51.1 121.69 47.35 123.97 46.37 124.87 44.13"/><polygon class="cls-1" points="407.62 11.74 414.91 11.74 416.61 10.04 405.92 10.04 405.92 10.05 405.92 10.05 405.92 16.07 407.62 14.37 407.62 11.74"/><polygon class="cls-1" points="407.62 22.52 414.91 22.52 416.61 20.83 405.92 20.83 405.92 20.83 405.92 20.83 405.92 26.85 407.62 25.16 407.62 22.52"/><polygon class="cls-1" points="432.77 22.87 435.03 22.87 437 20.01 437 10.62 439.23 10.62 440.93 8.92 435.3 8.92 435.3 8.92 435.3 8.92 435.3 19.18 432.77 22.87"/><polygon class="cls-1" points="447.26 27.94 444.99 27.94 442.21 31.82 435.03 31.82 435.03 37.85 436.73 36.15 436.73 33.52 443.26 33.52 447.26 27.94"/><polygon class="cls-1" points="160.88 23.62 160.88 10.62 164.81 10.62 166.51 8.92 159.18 8.92 159.18 22.94 156.65 26.64 159.98 24.94 160.88 23.62"/><polygon class="cls-1" points="158.61 56.29 162.04 54.59 168.39 45.37 166.13 45.37 158.61 56.29"/><polygon class="cls-1" points="187.57 45.37 195.09 56.29 196.18 54.59 189.84 45.37 187.57 45.37"/><polygon class="cls-1" points="21.89 27.84 26.86 27.84 27.99 26.71 23.02 26.71 21.89 27.84"/><polygon class="cls-1" points="33.06 49.18 33.06 50.88 33.06 55.33 34.76 53.9 34.76 51.15 45.86 52.89 50.84 52.89 52.54 51.19 45.86 51.19 33.06 49.18"/><polygon class="cls-1" points="27.3 21.08 28.99 21.08 33.31 15.06 31.62 15.06 27.3 21.08"/><polygon class="cls-1" points="10.78 21.86 10.78 25.16 12.48 23.46 12.48 22.99 17.92 22.99 17.92 18.6 16.22 20.3 16.22 21.86 10.78 21.86"/><polygon class="cls-1" points="21.89 22.99 25.78 22.99 26.91 21.86 23.02 21.86 21.89 22.99"/><polygon class="cls-1" points="43.23 21.86 42.1 22.99 50.26 22.99 51.39 21.86 43.23 21.86"/><polygon class="cls-1" points="38.52 28.62 38.52 23.46 36.82 25.16 36.82 27.49 34.88 27.49 33.75 28.62 38.52 28.62"/><polygon class="cls-1" points="29.43 26.29 29.43 26.29 29.43 30.44 31.13 28.74 31.13 27.42 33.75 27.42 34.88 26.29 29.43 26.29"/><polygon class="cls-1" points="50.42 26.29 45.17 26.29 45.17 27.49 43.23 27.49 42.1 28.62 46.87 28.62 46.87 27.49 46.87 27.42 49.29 27.42 50.42 26.29"/><polygon class="cls-1" points="91.28 48.42 79.28 48.42 84.7 56.29 85.22 54.59 82.14 50.12 92.98 50.12 92.98 17.23 91.28 18.36 91.28 48.42"/><polygon class="cls-1" points="57.08 10.98 57.08 10.98 57.08 18.36 58.78 16.66 58.78 12.67 102.4 12.67 104.1 10.98 57.08 10.98"/><polygon class="cls-1" points="239.59 30.96 242.32 34.92 243.41 33.21 240.72 29.32 239.59 30.96"/><polygon class="cls-1" points="224.09 56.29 227.52 54.6 234.55 44.38 232.29 44.38 224.09 56.29"/><polygon class="cls-1" points="239.59 45.89 246.76 56.29 247.85 54.59 240.81 44.38 239.59 45.89"/><polygon class="cls-1" points="225.12 36.85 226.81 35.16 226.81 23.12 225.12 23.12 225.12 31.57 220.45 31.57 218.75 33.27 222.52 33.27 225.12 31.73 225.12 36.85"/><polygon class="cls-1" points="85.64 22.64 61.75 22.64 61.75 43.62 63.44 41.92 63.44 24.33 83.95 24.33 85.64 22.64"/><polygon class="cls-1" points="9.57 12.48 28.03 12.48 28.03 9.57 32.4 9.57 34.1 7.87 26.33 7.87 26.33 10.78 7.87 10.78 7.87 17.39 9.57 15.7 9.57 12.48"/><polygon class="cls-1" points="45.17 15.06 45.17 16.8 37.11 16.8 36.3 17.94 49.1 17.94 50.23 16.8 46.87 16.8 46.87 13.36 45.17 15.06"/><polygon class="cls-1" points="32.4 12.48 50.86 12.48 52.56 10.78 34.1 10.78 32.4 12.48"/><polygon class="cls-1" points="10.2 16.8 10.2 20.3 11.9 18.6 11.9 17.94 26.36 17.94 27.49 16.8 10.2 16.8"/><polygon class="cls-1" points="8.89 31.44 10.59 29.53 10.59 28.19 13.42 27.84 17.92 27.84 17.92 25.16 16.22 25.16 16.22 26.7 13.42 26.7 8.89 27.27 8.89 31.44"/><polygon class="cls-1" points="49.25 31.97 11.17 31.96 11.17 31.97 11.17 31.97 11.17 48.67 12.87 46.97 12.87 33.66 47.55 33.66 49.25 31.97"/><polygon class="cls-1" points="43.37 34.33 41.68 35.46 41.68 36.82 18.75 36.82 18.18 37.39 43.37 37.39 43.37 34.33"/><polygon class="cls-1" points="43.37 38.41 41.68 39.54 41.68 41.1 18.75 41.1 18.18 41.66 43.37 41.66 43.37 38.41"/><polygon class="cls-1" points="18.75 45.18 18.18 45.74 43.37 45.74 43.37 42.69 41.68 43.82 41.68 45.18 18.75 45.18"/><polygon class="cls-1" points="79.37 27.54 77.68 29.24 77.68 37.01 69.52 37.01 67.82 38.71 79.37 38.71 79.37 27.54"/><polygon class="cls-1" points="151.57 17.58 141.85 17.58 140.15 19.28 151.57 19.28 151.57 17.58"/><polygon class="cls-1" points="121.98 19.28 121.98 14.14 120.28 15.84 120.28 17.58 111.35 17.58 111.35 29.44 113.05 27.74 113.05 19.28 120.28 19.28 121.98 19.28"/><polygon class="cls-1" points="124.51 20.74 122.81 22.44 122.81 24.58 118.73 24.58 117.6 25.71 124.51 25.71 124.51 20.74"/><polygon class="cls-1" points="140.1 24.58 138.97 25.71 146.07 25.71 146.07 20.74 144.38 22.44 144.38 24.58 140.1 24.58"/><polygon class="cls-1" points="129.42 24.58 128.29 25.71 135.39 25.71 135.39 20.74 133.69 22.44 133.69 24.58 129.42 24.58"/><polygon class="cls-1" points="127.67 17.58 125.97 19.28 136.17 19.28 136.17 10.62 140.15 10.62 141.85 8.92 134.47 8.92 134.47 8.92 134.47 17.58 127.67 17.58"/><polygon class="cls-1" points="110.33 12.48 121.98 12.48 121.98 10.62 125.97 10.62 127.67 8.92 120.28 8.92 120.28 10.78 108.63 10.78 108.63 15.84 110.33 14.14 110.33 12.48"/><polygon class="cls-1" points="108.63 30.8 108.63 30.8 108.63 39.54 110.33 37.84 110.33 32.49 152.39 32.49 154.09 30.8 108.63 30.8 108.63 30.8"/><polygon class="cls-1" points="116.78 41.82 116.78 41.82 116.78 41.82 130.09 36.09 126.41 36.09 115.73 40.69 110.64 40.69 110.64 40.69 110.63 40.69 110.63 45.98 112.33 44.29 112.33 41.82 116.78 41.82"/><polygon class="cls-1" points="140.15 12.48 152.39 12.48 154.09 10.78 141.85 10.78 140.15 12.48"/><polygon class="cls-1" points="188.44 8.92 180.86 8.92 180.86 12.92 166.51 12.92 164.81 14.62 182.55 14.62 182.55 10.62 186.74 10.62 188.44 8.92"/><polygon class="cls-1" points="186.74 14.62 200.73 14.62 202.42 12.92 188.44 12.92 186.74 14.62"/><polygon class="cls-1" points="187.31 20.85 199.54 20.85 200.68 19.72 188.44 19.72 187.31 20.85"/><polygon class="cls-1" points="187.31 27.07 199.55 27.07 200.68 25.94 188.44 25.94 187.31 27.07"/><polygon class="cls-1" points="201.48 33.29 202.62 32.15 188.44 32.15 187.31 33.29 201.48 33.29"/><polygon class="cls-1" points="180.86 19.72 170.56 19.72 169.43 20.85 182.55 20.85 182.55 16.08 180.86 17.78 180.86 19.72"/><polygon class="cls-1" points="180.86 25.94 170.56 25.94 169.43 27.07 180.86 27.07 180.86 27.07 182.55 27.07 182.55 22.3 180.86 24 180.86 25.94"/><polygon class="cls-1" points="180.86 32.16 170.56 32.16 169.43 33.29 182.55 33.29 182.55 28.52 180.86 30.21 180.86 32.16"/><polygon class="cls-1" points="164.87 26.64 163.18 26.64 163.18 38.37 164.87 36.67 164.87 26.64"/><polygon class="cls-1" points="177.65 39.54 158.9 39.53 158.9 45.37 160.6 43.67 160.6 41.23 179.35 41.23 179.35 35.32 177.65 37.01 177.65 39.54"/><polygon class="cls-1" points="177.65 56.29 179.35 54.6 179.35 45.37 177.65 45.37 177.65 56.29"/><polygon class="cls-1" points="185.23 41.23 202.28 41.23 203.98 39.54 185.23 39.54 185.23 41.23"/><polygon class="cls-1" points="218.75 18.89 223.56 18.89 223.56 17.2 220.45 17.2 218.75 18.89"/><polygon class="cls-1" points="211.27 18.89 215.15 18.9 215.15 10.62 218.75 10.62 220.45 8.92 213.46 8.92 213.46 8.92 213.46 8.92 213.46 17.2 209.57 17.19 209.57 24.38 211.27 22.69 211.27 18.89"/><polygon class="cls-1" points="213.46 31.57 207.75 31.57 207.75 31.57 207.75 31.57 207.75 38.77 209.45 37.07 209.45 33.27 215.16 33.27 215.16 22.69 213.46 24.38 213.46 31.57"/><polygon class="cls-1" points="213.47 48.43 206.98 48.42 212.39 56.29 213.49 54.59 210.41 50.12 215.16 50.12 215.16 37.07 213.47 38.77 213.47 48.43"/><polygon class="cls-1" points="242.95 16.98 241.06 19.72 232.48 19.72 231.33 21.42 242.15 21.42 245.21 16.98 242.95 16.98"/><polygon class="cls-1" points="254.06 19.72 249.4 19.72 248.23 21.42 252.37 21.42 254.06 19.72"/><polygon class="cls-1" points="247.85 36.85 249.55 35.16 249.55 23.46 247.85 25.16 247.85 36.85"/><polygon class="cls-1" points="236.68 13.45 249.84 13.45 251.54 11.75 237.97 11.75 236.68 13.45"/><polygon class="cls-1" points="233.97 33.21 239.52 25.16 237.26 25.16 230.54 34.92 233.97 33.21"/><polygon class="cls-1" points="242.8 35.97 235.76 35.97 235.76 35.97 235.76 38.55 223.17 38.55 223.17 44.38 224.87 42.68 224.87 40.25 237.46 40.25 237.46 37.67 241.1 37.67 242.8 35.97"/><polygon class="cls-1" points="242.8 40.25 254.31 40.25 256.01 38.55 242.8 38.55 242.8 40.25"/><polygon class="cls-1" points="298.75 10.62 303.12 10.62 304.82 8.92 297.05 8.92 297.05 8.92 297.05 17.32 298.75 15.63 298.75 10.62"/><polygon class="cls-1" points="267.92 35.85 267.92 47.17 261.1 47.17 261.1 47.17 261.1 47.17 261.1 54.36 262.8 52.67 262.8 48.87 269.62 48.87 269.61 34.72 267.92 35.85"/><polygon class="cls-1" points="285.98 56.29 287.67 54.59 287.67 23.82 285.98 25.51 285.98 56.29"/><polygon class="cls-1" points="303.13 20.22 304.82 18.52 293.75 18.52 292.06 20.22 303.13 20.22"/><polygon class="cls-1" points="293.75 8.92 285.98 8.92 285.98 8.92 285.98 18.52 260.13 18.52 260.13 18.52 260.13 25.52 261.82 23.82 261.82 20.22 287.68 20.22 287.67 10.62 292.05 10.62 293.75 8.92"/><polygon class="cls-1" points="261.1 28.65 261.1 28.65 261.1 35.85 262.8 34.15 262.8 30.35 280.62 30.35 282.31 28.65 261.1 28.65 261.1 28.65"/><polygon class="cls-1" points="273.99 48.87 280.62 48.87 282.31 47.18 275.69 47.18 273.99 48.87"/><polygon class="cls-1" points="297.05 49.36 293.75 49.36 292.06 51.06 298.75 51.06 298.75 45.18 303.12 45.18 304.82 43.48 297.05 43.48 297.05 49.36"/><polygon class="cls-1" points="328.92 8.92 320.56 8.92 320.56 27.46 304.82 27.46 304.82 27.46 304.82 27.46 304.82 34.84 306.52 33.15 306.52 29.16 322.25 29.16 322.25 10.62 327.22 10.62 328.92 8.92"/><polygon class="cls-1" points="327.21 15.98 345.48 15.98 347.18 14.28 328.91 14.28 327.21 15.98"/><polygon class="cls-1" points="327.21 29.16 350.14 29.16 351.84 27.46 328.91 27.46 327.21 29.16"/><polygon class="cls-1" points="339.37 41.19 339.89 39.49 330.11 39.49 339.31 52.84 340.41 51.15 333.55 41.19 339.37 41.19"/><polygon class="cls-1" points="320.56 56.28 322.25 54.59 322.25 33.14 320.56 34.84 320.56 56.28"/><polygon class="cls-1" points="366.26 56.29 367.96 54.59 367.96 37.26 366.26 38.95 366.26 56.29"/><polygon class="cls-1" points="376.31 14.04 382.92 14.04 382.91 10.34 386.52 10.34 388.21 8.84 381.22 8.84 381.22 12.34 374.61 12.34 374.61 35.46 376.31 33.76 376.31 14.04"/><polygon class="cls-1" points="386.66 56.29 388.36 54.59 388.36 46.2 386.66 47.9 386.66 56.29"/><polygon class="cls-1" points="399.15 14.03 400.84 12.34 388.21 12.34 386.52 14.03 399.15 14.03"/><polygon class="cls-1" points="386.41 16.28 384.72 17.97 384.72 21.47 380.83 21.47 379.13 23.16 386.41 23.16 386.41 16.28"/><polygon class="cls-1" points="396.32 16.27 394.62 17.97 394.62 21.47 390.93 21.47 390.93 23.16 396.32 23.16 396.32 16.27"/><polygon class="cls-1" points="388.57 29.82 387.4 31.52 396.32 31.52 396.32 24.63 394.62 26.33 394.62 29.82 388.57 29.82"/><polygon class="cls-1" points="380.83 31.52 382.77 31.52 386.31 26.33 384.22 26.33 381.81 29.82 380.83 29.82 380.83 31.52"/><polygon class="cls-1" points="374.65 40.2 377.91 38.5 380.01 35.46 377.92 35.46 374.65 40.2"/><polygon class="cls-1" points="394.04 37.01 386.66 37.01 386.66 41.48 373.41 41.48 373.41 41.48 373.41 47.89 375.11 46.19 375.11 43.18 388.36 43.18 388.36 38.71 392.34 38.71 394.04 37.01"/><polygon class="cls-1" points="392.34 43.18 400.7 43.18 402.4 41.48 394.04 41.48 392.34 43.18"/><polygon class="cls-1" points="363.73 10.59 356.93 10.59 356.93 10.59 356.93 56.29 358.63 54.59 358.63 12.28 362.03 12.28 363.73 10.59"/><polygon class="cls-1" points="367.57 10.62 370 10.62 371.7 8.92 365.87 8.92 365.87 23.02 363.73 23.02 362.03 24.73 367.57 24.73 367.57 10.62"/><polygon class="cls-1" points="370 24.72 373.25 24.72 373.25 23.02 371.7 23.02 370 24.72"/><polygon class="cls-1" points="362.03 34.05 370.58 34.05 372.28 32.35 363.73 32.35 362.03 34.05"/><polygon class="cls-1" points="427.93 17.59 432.2 17.59 433.9 15.89 429.62 15.89 427.93 17.59"/><polygon class="cls-1" points="452.45 14.11 440.93 14.11 440.93 15.8 450.76 15.8 452.45 14.11"/><polygon class="cls-1" points="451.19 22.23 440.51 22.23 439.12 23.93 449.49 23.93 451.19 22.23"/><polygon class="cls-1" points="447.2 33.52 451.05 33.52 452.75 31.83 448.41 31.83 447.2 33.52"/><polygon class="cls-1" points="433.9 25.61 426.13 25.61 424.43 27.31 432.2 27.31 433.9 25.61"/><polygon class="cls-1" points="414.91 51.96 451.05 51.96 452.75 50.26 416.61 50.26 414.91 51.96"/><polygon class="cls-1" points="405.92 38.61 407.62 36.91 407.62 33.31 414.91 33.31 416.61 31.61 405.92 31.61 405.92 38.61"/><polygon class="cls-1" points="419.47 27.31 421.77 27.31 421.77 20.22 420.07 21.92 420.07 25.61 417.77 25.61 417.77 25.61 417.77 31.63 419.47 29.93 419.47 27.31"/><polygon class="cls-1" points="421.77 38.82 421.77 31.63 420.08 31.63 420.07 38.01 415.87 44.1 419.31 42.4 421.77 38.82"/><polygon class="cls-1" points="429.55 29.93 427.85 31.63 427.85 42.51 423.99 42.51 428.14 48.53 429.24 46.84 427.43 44.21 429.55 44.21 429.55 29.93"/><polygon class="cls-1" points="442.75 44.21 442.75 36.15 441.05 37.85 441.05 42.51 437.2 42.51 441.51 48.53 442.56 46.84 440.68 44.21 442.75 44.21"/><rect class="cls-1" x="436.33" y="22.87" width="1.7" height="5.07"/><polygon class="cls-1" points="419.47 17.59 424.33 17.59 424.33 10.62 427.93 10.62 429.62 8.92 422.63 8.92 422.63 8.92 422.63 15.89 417.77 15.89 417.77 21.92 419.47 20.22 419.47 17.59"/><polygon class="cls-1" points="409.81 50.21 409.81 50.21 405.62 56.29 409.05 54.59 411.5 51.04 411.5 36.91 409.81 38.61 409.81 50.21"/><polygon class="cls-1" points="466.81 24.68 466.81 30.19 468.51 28.5 468.51 24.68 466.81 24.68"/><polygon class="cls-1" points="471.68 49.29 472.81 48.16 467.17 48.16 467.17 52.01 463.66 52.01 463.66 52.01 463.66 56.29 465.36 54.59 465.36 53.71 468.87 53.71 468.87 49.29 471.68 49.29"/><polygon class="cls-1" points="478.27 20.46 478.27 22.63 479.97 22.63 479.97 18.76 478.27 20.46"/><polygon class="cls-1" points="478.51 42.82 470.98 42.82 469.85 43.95 480.21 43.95 480.21 39.57 478.51 41.27 478.51 42.82"/><polygon class="cls-1" points="498.88 10.62 501.83 10.62 503.52 8.92 497.18 8.92 497.18 8.92 497.18 17.32 498.88 15.63 498.88 10.62"/><polygon class="cls-1" points="486.87 43.47 482.21 50.23 485.48 48.53 488.57 44.05 488.57 23.75 486.87 25.44 486.87 43.47"/><polygon class="cls-1" points="486.87 56.29 488.57 54.59 488.57 48.53 486.87 50.23 486.87 56.29"/><polygon class="cls-1" points="493.79 33.43 493.79 36.47 496.85 32.02 500.56 32.02 503.43 30.33 495.92 30.33 493.79 33.43"/><polygon class="cls-1" points="468.51 10.62 471.92 10.62 473.61 8.92 466.81 8.92 466.81 16.5 457.87 16.5 457.87 50.21 453.68 56.29 456.94 54.59 459.57 50.78 459.57 18.2 468.51 18.2 468.51 10.62"/><polygon class="cls-1" points="473.61 10.67 471.92 12.36 482.4 12.36 484.1 10.67 473.61 10.67"/><polygon class="cls-1" points="473.61 16.5 471.92 18.2 482.21 18.2 483.91 16.5 473.61 16.5"/><polygon class="cls-1" points="478.27 24.08 478.27 26.24 473.61 26.24 472.48 27.36 479.97 27.36 479.97 25.21 482.78 25.21 483.91 24.08 478.27 24.08"/><polygon class="cls-1" points="476.72 22.01 473.61 22.01 473.04 22.58 476.15 22.58 476.72 22.01"/><polygon class="cls-1" points="468.51 22.58 468.51 22.58 468.51 20.46 466.81 20.46 466.81 22.01 464.09 22.01 463.52 22.58 466.81 22.58 468.51 22.58"/><polygon class="cls-1" points="465.54 31.65 465.54 35.93 467.24 34.23 467.24 32.78 482.78 32.78 483.91 31.65 465.54 31.65"/><polygon class="cls-1" points="483.76 37.38 465.54 37.38 465.54 46.71 467.24 45.01 467.24 38.51 482.63 38.51 483.76 37.38"/><polygon class="cls-1" points="482.13 48.16 476.5 48.16 476.5 52.01 472.81 52.01 471.11 53.71 476.5 53.71 478.19 52.01 478.2 52.01 478.2 49.29 481 49.29 482.13 48.16"/><polygon class="cls-1" points="480.43 53.71 483.95 53.71 485.64 52.01 482.13 52.01 480.43 53.71"/><polygon class="cls-1" points="486.87 8.92 486.87 18.52 485.04 18.52 485.04 25.44 486.74 23.74 486.74 20.18 488.56 20.18 488.57 20.18 488.57 10.62 492.09 10.62 493.78 8.92 486.87 8.92"/><polygon class="cls-1" points="501.83 20.22 503.53 18.52 493.79 18.52 492.09 20.22 501.83 20.22"/><polygon class="cls-1" points="496.62 43.63 496.62 49.36 493.79 49.36 492.09 51.06 498.31 51.06 498.31 45.32 501.84 45.32 503.54 43.63 496.62 43.63"/><polygon class="cls-1" points="28.46 21.86 28.46 25.16 30.16 23.46 30.16 22.99 38.52 22.99 38.52 18.61 36.82 20.3 36.82 21.86 28.46 21.86"/><polygon class="cls-1" points="7.87 51.19 7.87 51.19 7.87 51.19 7.87 57.34 9.57 55.64 9.57 52.89 14.55 52.89 25.65 51.15 27.35 49.18 14.55 51.19 7.87 51.19"/></g></g></g></g></g></svg>